<?xml version="1.0" standalone="no"?>
<!DOCTYPE svg PUBLIC "-//W3C//DTD SVG 1.1//EN" "http://www.w3.org/Graphics/SVG/1.1/DTD/svg11.dtd" >
<svg xmlns="http://www.w3.org/2000/svg">
<metadata>
Created by FontForge 20120731 at Wed Oct 12 10:40:19 2016
 By admin
</metadata>
<defs>
<font id="iconfont" horiz-adv-x="1024" >
  <font-face 
    font-family="iconfont"
    font-weight="500"
    font-stretch="normal"
    units-per-em="1024"
    panose-1="2 0 6 3 0 0 0 0 0 0"
    ascent="896"
    descent="-128"
    x-height="792"
    bbox="-0.0769224 -212 1024 896.184"
    underline-thickness="50"
    underline-position="-100"
    unicode-range="U+0078-E971"
  />
<missing-glyph horiz-adv-x="374" 
d="M34 0v682h272v-682h-272zM68 34h204v614h-204v-614z" />
    <glyph glyph-name=".notdef" horiz-adv-x="374" 
d="M34 0v682h272v-682h-272zM68 34h204v614h-204v-614z" />
    <glyph glyph-name=".null" horiz-adv-x="0" 
 />
    <glyph glyph-name="nonmarkingreturn" horiz-adv-x="341" 
 />
    <glyph glyph-name="x" unicode="x" horiz-adv-x="1001" 
d="M281 543q-27 -1 -53 -1h-83q-18 0 -36.5 -6t-32.5 -18.5t-23 -32t-9 -45.5v-76h912v41q0 16 -0.5 30t-0.5 18q0 13 -5 29t-17 29.5t-31.5 22.5t-49.5 9h-133v-97h-438v97zM955 310v-52q0 -23 0.5 -52t0.5 -58t-10.5 -47.5t-26 -30t-33 -16t-31.5 -4.5q-14 -1 -29.5 -0.5
t-29.5 0.5h-32l-45 128h-439l-44 -128h-29h-34q-20 0 -45 1q-25 0 -41 9.5t-25.5 23t-13.5 29.5t-4 30v167h911zM163 247q-12 0 -21 -8.5t-9 -21.5t9 -21.5t21 -8.5q13 0 22 8.5t9 21.5t-9 21.5t-22 8.5zM316 123q-8 -26 -14 -48q-5 -19 -10.5 -37t-7.5 -25t-3 -15t1 -14.5
t9.5 -10.5t21.5 -4h37h67h81h80h64h36q23 0 34 12t2 38q-5 13 -9.5 30.5t-9.5 34.5q-5 19 -11 39h-368zM336 498v228q0 11 2.5 23t10 21.5t20.5 15.5t34 6h188q31 0 51.5 -14.5t20.5 -52.5v-227h-327z" />
    <glyph glyph-name="uni34FB" unicode="&#x34fb;" 
d="M320 544h-128l320 -320l320 320h-128l-192 -192z" />
    <glyph glyph-name="uniE600" unicode="&#xe600;" 
d="M448 224q-19 0 -26 6q-9 10 -9 23t9 22l109 109l-109 102q-9 10 -9 23t9.5 22.5t22.5 9.5t22 -10l128 -128q10 -9 10 -22t-10 -23l-128 -128q0 -6 -19 -6z" />
    <glyph glyph-name="uniE601" unicode="&#xe601;" 
d="M0 300q0 -139 68.5 -257t186.5 -186.5t257 -68.5t257 68.5t186.5 186.5t68.5 257t-68.5 257t-186.5 186.5t-257 68.5t-257 -68.5t-186.5 -186.5t-68.5 -257zM64 300q0 91 35.5 174t95.5 143t143 95.5t174 35.5t174 -35.5t143 -95.5t95.5 -143t35.5 -174t-35.5 -174
t-95.5 -143t-143 -95.5t-174 -35.5t-174 35.5t-143 95.5t-95.5 143t-35.5 174zM210 348h512v-96h-512v96zM462 524h128l224 -229l-224 -219h-128l224 219z" />
    <glyph glyph-name="uniE602" unicode="&#xe602;" 
d="M938.5 328q-11.5 0 -20 -8t-8.5 -20q0 -108 -53 -200t-145 -145t-200 -53t-200 53t-145 145t-53 200t53 200t145 145t200 53q133 0 239 -79q9 -8 21 -6t19 11.5t5.5 21t-11.5 18.5q-121 91 -273 91q-92 0 -176.5 -36t-145.5 -97t-97 -145.5t-36 -176.5t36 -176.5
t97 -145.5t145.5 -97t176.5 -36t176.5 36t145.5 97t97 145.5t36 176.5q0 12 -8.5 20t-20 8zM248 349q-9 8 -20.5 8t-20 -8.5t-8.5 -20t8 -20.5l228 -227q8 -9 20 -9t20 9l484 483q8 9 8 20.5t-8.5 20t-20 8.5t-19.5 -8l-464 -464z" />
    <glyph glyph-name="uniE606" unicode="&#xe606;" 
d="M676 263q0 -7 -6 -13l-266 -266q-6 -6 -13.5 -6t-12.5 6l-29 29q-6 5 -6 12.5t6 13.5l225 224l-225 225q-6 6 -6 13.5t6 12.5l29 29q5 6 12.5 6t13.5 -6l266 -266q6 -6 6 -14z" />
    <glyph glyph-name="uniE607" unicode="&#xe607;" 
d="M158 -118v920q0 3 0.5 8t4.5 17t11 21.5t21.5 17t33.5 7.5h566q3 1 8 1.5t17 -1t21.5 -7.5t17 -22.5t7.5 -41.5v-920l-354 248z" />
    <glyph glyph-name="uniE608" unicode="&#xe608;" 
d="M1002 543l-73 -73l-144 145l72 72q15 15 36 15t36 -15l73 -72q15 -15 15 -36.5t-15 -35.5zM893 434l-362 -362l-145 145l362 362zM238 640h460q11 0 18 -8l-43 -43h-435q-11 0 -18.5 7.5t-7.5 18t7.5 18t18.5 7.5zM238 435h281l-51 -51h-230q-11 0 -18.5 7.5t-7.5 18
t7.5 18t18.5 7.5zM495 36l-217 -73l72 217zM238 179q-11 0 -18.5 7.5t-7.5 18t7.5 18t18.5 7.5h76l-51 -51h-25zM775 845h-614q-42 0 -72.5 -30t-30.5 -73v-716q0 -43 30.5 -73t72.5 -30h614q42 0 72.5 30t30.5 73v291l51 52v-343q0 -64 -45 -109t-109 -45h-614
q-64 0 -109 45t-45 109v716q0 64 45 109t109 45h614q41 0 75.5 -20t55.5 -54l-38 -38q-12 27 -37 44t-56 17z" />
    <glyph glyph-name="uniE60B" unicode="&#xe60b;" 
d="M889 35l-211 212q57 79 57 178q0 126 -89 215.5t-215 89.5t-215.5 -89.5t-89.5 -215.5t89.5 -215.5t215.5 -89.5q104 0 186 64l211 -211q3 -3 12.5 -6t23 -1t23 11.5t11 22.5t-1.5 22t-7 13zM213 425q0 90 64 154t154 64t153.5 -64t63.5 -154t-63.5 -154t-153.5 -64
t-154 64t-64 154z" />
    <glyph glyph-name="uniE611" unicode="&#xe611;" 
d="M64 768v-128h895v128h-895zM320 320h639v128h-639v-128zM320 1h639v127h-639v-127zM64 320h128v128h-128v-128zM64 1h128v127h-128v-127z" />
    <glyph glyph-name="uniE614" unicode="&#xe614;" 
d="M626 384q0 -15 -10 -26l-156 -155q-11 -11 -26 -11t-25.5 10.5t-10.5 26t10 25.5l130 130l-130 129q-10 11 -10 26.5t10.5 26t26 10.5t25.5 -11l156 -155q10 -11 10 -26z" />
    <glyph glyph-name="uniE616" unicode="&#xe616;" 
d="M324 389q-13 13 -30 13t-29.5 -12.5t-12.5 -30t12 -29.5l173 -172q12 -13 29.5 -13t29.5 13l395 394q12 13 12 30t-12 29.5t-29.5 12.5t-29.5 -12l-365 -366zM324 389zM956 431q-2 13 -12 21t-23.5 7t-21.5 -11.5t-7 -23.5q2 -20 2 -40q0 -104 -51 -192t-139.5 -139.5
t-192.5 -51.5t-192 51.5t-139.5 139.5t-51.5 192t51.5 192.5t139.5 139.5t192 51q115 0 211 -63q11 -7 24 -4.5t20 13.5t4.5 24t-13.5 20q-112 74 -246 74q-91 0 -173.5 -35.5t-142.5 -95.5t-95.5 -142.5t-35.5 -173.5t35.5 -173.5t95.5 -142.5t142.5 -95.5t173.5 -35.5
t173.5 35.5t142.5 95.5t95.5 142.5t35.5 173.5q0 24 -2 47zM956 431z" />
    <glyph glyph-name="uniE61B" unicode="&#xe61b;" 
d="M512 831q-185 0 -316 -131t-131 -316t131 -316t316 -131t316 131t131 316t-131 316t-316 131zM512 -33q-113 0 -209 56t-152 152t-56 209t56 209t152 152t209 56t209 -56t152 -152t56 -209t-56 -209t-152 -152t-209 -56zM468 244l-174 174l-21 -21l195 -195l313 313
l-22 21z" />
    <glyph glyph-name="uniE61F" unicode="&#xe61f;" 
d="M512 125l-306 307l28 28l278 -277l278 277l28 -28z" />
    <glyph glyph-name="uniE620" unicode="&#xe620;" 
d="M716 296l-313 296q-12 12 -28.5 12t-28.5 -11.5t-12 -27t12 -27.5l285 -269l-285 -270q-12 -11 -12 -27t12 -27t28.5 -11t28.5 11l313 297q12 11 12 26.5t-12 27.5z" />
    <glyph glyph-name="uniE624" unicode="&#xe624;" 
d="M560 306q-17 -18 -70.5 -72.5t-82.5 -84.5q-11 -11 -6.5 -25.5t17 -18.5t24.5 6q89 91 172 176q7 7 7 19t-7 19q-115 115 -171 170q-12 12 -25.5 6.5t-16.5 -18.5t7 -26q25 -25 76 -75.5t76 -75.5z" />
    <glyph glyph-name="uniE628" unicode="&#xe628;" 
d="M237 107l208 88l-128 125zM854 596l-132 135l-381 -376l137 -142zM962 758q-35 38 -75 68q-18 13 -35.5 13t-26.5 -7l-9 -6l-68 -68l138 -137q58 58 76 78q8 9 8 23.5t-4 25.5zM815 36q0 -8 -5 -13t-12 -5h-642q-7 0 -12 5t-5 13v636q0 7 5 12t12 5h408l85 91h-580
q-9 0 -15 -6t-6 -15v-810q0 -9 6 -15t15 -6h816q9 0 15 6t6 15v579l-91 -85v-407zM815 36z" />
    <glyph glyph-name="uniE629" unicode="&#xe629;" 
d="M797 391.5q0 -7.5 -5 -13.5l-267 -266q-5 -6 -12.5 -6t-13.5 6l-266 266q-6 6 -6 13.5t6 13.5l28 28q6 6 13.5 6t13.5 -6l224 -224l225 224q5 6 12.5 6t13.5 -6l29 -28q5 -6 5 -13.5z" />
    <glyph glyph-name="uniE62B" unicode="&#xe62b;" 
d="M512 -148q-91 0 -174 35q-81 34 -142.5 96t-95.5 142q-35 83 -35 174t35 174q34 81 95.5 143t142.5 96q83 35 174 35t174 -35q80 -34 142 -96t96 -143q35 -83 35 -174t-35 -174q-34 -80 -96 -142t-142 -96q-83 -35 -174 -35zM512 709q-82 0 -157 -31t-133 -89t-88.5 -133
t-30.5 -157t30.5 -156.5t88.5 -132.5t133 -89t157 -31t156.5 31t132.5 89t89 132.5t31 156.5t-31 157t-89 133t-132.5 89t-156.5 31z" />
    <glyph glyph-name="uniE62F" unicode="&#xe62f;" 
d="M995 537q-16 52 -43 98q-9 15 -26 16.5t-28 -13.5q-11 -16 0 -37q90 -164 40 -340q-20 -71 -61 -130.5t-95.5 -100.5t-120.5 -65.5t-136 -26t-143 18.5q-131 39 -218 147t-97 245q-8 111 37 214q40 94 118 159.5t177 91.5t198 6q71 -15 132 -49q12 -7 22 -6q23 4 27 26
q5 22 -17 35q-173 95 -363 53q-173 -39 -284.5 -178.5t-111.5 -316.5q0 -58 12 -113q19 -84 64.5 -156.5t108 -123t139.5 -82t159.5 -34t168.5 19.5q149 44 248 163.5t115 274.5q10 103 -22 204zM553 703q0 13 -9 22.5t-23 9.5h-14q-13 0 -22 -9.5t-9 -22.5v-266h-266
q-13 0 -22.5 -9t-9.5 -23v-14q0 -13 9.5 -22t22.5 -9h266v-266q0 -13 9 -22.5t22 -9.5h14q14 0 23 9.5t9 22.5v266h266q13 0 22.5 9t9.5 22v14q0 14 -9.5 23t-22.5 9h-266v266z" />
    <glyph glyph-name="uniE631" unicode="&#xe631;" 
d="M512 751q-100 0 -184.5 -49t-133.5 -133.5t-49 -184.5t49 -184.5t133.5 -133.5t184.5 -49t184.5 49t133.5 133.5t49 184.5t-49 184.5t-133.5 133.5t-184.5 49zM512 73q-129 0 -220 91t-91 220t91 220t220 91t220 -91t91 -220t-91 -220t-220 -91z" />
    <glyph glyph-name="uniE634" unicode="&#xe634;" 
d="M959 -96l-50 -50l-265 264q-98 -80 -225 -80q-96 0 -177.5 47.5t-129 129t-47.5 177.5t47.5 178t129 129t177.5 47t178 -47t129 -129t47 -178q0 -126 -79 -223zM419 675q-117 0 -200 -82.5t-83 -200t83 -200.5t200.5 -83t200.5 83t83 200.5t-83 200t-201 82.5z" />
    <glyph glyph-name="uniE636" unicode="&#xe636;" 
d="M832 896h-640q-27 0 -45.5 -18.5t-18.5 -45.5v-895q0 -28 19 -46t45 -18q19 0 35 10l264 227q9 8 21 8t21 -8l263 -227q16 -10 35 -10q26 0 45.5 18t19.5 46v895q0 27 -19 45.5t-45 18.5zM790 46l-256 221q-9 8 -22 8t-23 -8l-256 -221v718q0 15 10 25t25 10h488
q14 0 24 -10t10 -25v-718z" />
    <glyph glyph-name="uniE640" unicode="&#xe640;" 
d="M512 674q-129 0 -220 -91t-91 -219.5t91 -219.5t220 -91t220 91t91 219.5t-91 219.5t-220 91zM719 329h-414v52h414v-52z" />
    <glyph glyph-name="uniE649" unicode="&#xe649;" 
d="M514 386zM349 386q0 69 48.5 117.5t117 48.5t117 -48.5t48.5 -117.5t-48.5 -117.5t-117 -48.5t-117 48.5t-48.5 117.5zM514.5 17q-75.5 0 -143.5 29q-67 28 -118 79t-79 117q-29 69 -29 144t29 144q28 66 79 117t118 79q68 29 143.5 29t143.5 -29q67 -28 118 -79t79 -117
q29 -69 29 -144t-29 -144q-28 -66 -79 -117t-118 -79q-68 -29 -143.5 -29zM514 715q-136 0 -232 -96.5t-96 -232.5t96 -232t232 -96t232.5 96t96.5 232t-96.5 232.5t-232.5 96.5z" />
    <glyph glyph-name="uniE64A" unicode="&#xe64a;" 
d="M230 -180q-48 0 -81.5 33.5t-33.5 81.5v333l-38 -38q-13 -13 -32 -13t-32 13q-13 25 -13 38q0 6 13 32l467 467q13 13 32 13t32 -13l467 -467q13 -26 13 -32q0 -19 -13 -32t-32 -13t-32 13l-435 429l-301 -301v-422q0 -10 8 -18t18 -8h115v186q0 19 13 31.5t32 12.5h230
q19 0 32 -12.5t13 -32t-13 -32t-32 -12.5h-185v-186q0 -19 -13 -32t-32 -13h-167v-6zM627 -180q-19 0 -32 13t-13 32t13 32t32 13h160q10 0 18 8t8 17v256q0 19 12.5 32t32 13t32 -13t12.5 -32v-256q0 -48 -33.5 -81.5t-81.5 -33.5h-160z" />
    <glyph glyph-name="uniE655" unicode="&#xe655;" 
d="M715 -128h-603q-45 0 -77.5 32t-32.5 78v733q0 46 32.5 81t77.5 35h513q16 0 26.5 -7.5t10.5 -22.5t-11 -26t-26 -11h-519q-15 0 -26 -13.5t-11 -29.5v-744q0 -15 11 -26t26 -11h628q15 0 25.5 11t10.5 26v559q0 16 8 26.5t22.5 10.5t22.5 -10.5t8 -26.5v-554
q0 -47 -26.5 -78.5t-70.5 -31.5h-19zM740 -128zM557 458zM416 451h-252q-14 0 -23 9.5t-9 22.5t9 22.5t23 9.5h252q13 0 22.5 -9.5t9.5 -22.5t-9.5 -22.5t-22.5 -9.5zM416 259h-252q-14 0 -23 9t-9 22.5t9 22.5t23 9h252q13 0 22.5 -9t9.5 -22.5t-9.5 -22.5t-22.5 -9z
M607 65h-443q-14 0 -23 9t-9 22.5t9 22.5t23 9h443q13 0 22.5 -9t9.5 -22.5t-9.5 -22.5t-22.5 -9zM580 486q-13 0 -22.5 9t-9.5 22.5t10 22.5l313 314q10 9 23 9t22.5 -9.5t9.5 -22.5t-10 -22l-313 -314q-10 -9 -23 -9z" />
    <glyph glyph-name="uniE657" unicode="&#xe657;" 
d="M511 -63q-126 0 -233 65.5t-164 177.5q-9 17 -16 36q-6 14 0 28t20 20t28.5 0t20.5 -20q6 -16 13 -30q48 -94 137 -148.5t194 -54.5q101 0 187 50t135.5 135.5t49.5 186.5t-49.5 188t-135.5 138.5t-187 51.5q-144 0 -250 -93.5t-120 -234.5h482q15 0 26 -11t11 -26
t-11 -26t-26 -11h-521q-16 0 -26.5 8t-10.5 23q0 121 60 223t162.5 161t223.5 59q91 0 173.5 -36t142.5 -96t95.5 -143t35.5 -173.5t-35.5 -173.5t-95.5 -143t-142.5 -95.5t-173.5 -35.5zM474 160q-16 0 -27 12t-10 27t12 26l174 158l-174 159q-11 10 -12 25.5t9.5 26.5
t26 12t26.5 -9l174 -159q25 -22 25 -55t-25 -55l-174 -158q-10 -10 -25 -10z" />
    <glyph glyph-name="uniE65C" unicode="&#xe65c;" 
d="M512 812q-104 0 -199 -40.5t-163.5 -109t-109 -163.5t-40.5 -199q0 -88 30 -172t86 -152q8 -10 21 -11.5t23.5 7t12 21.5t-7.5 23q-101 124 -101 284q0 185 131.5 316.5t316.5 131.5t316.5 -131.5t131.5 -316.5t-131.5 -316.5t-316.5 -131.5q-120 0 -224 60
q-11 7 -24 3.5t-19.5 -15t-3 -24.5t14.5 -19q118 -69 256 -69q104 0 199 40.5t163.5 109t109 163.5t40.5 199t-40.5 199t-109 163.5t-163.5 109t-199 40.5zM464 92q13 0 23 9l288 288q9 10 9 23t-9.5 22.5t-22.5 9.5t-23 -9l-265 -266l-153 154q-10 9 -23 9t-22.5 -9.5
t-9.5 -22.5t9 -23l176 -176q10 -9 23 -9z" />
    <glyph glyph-name="uniE664" unicode="&#xe664;" 
d="M512 660q-98 0 -181 -48t-131 -131t-48 -181t48 -181t131 -131t181 -48t181 48t131 131t48 181t-48 181t-131 131t-181 48zM760 277h-496v46h496v-46z" />
    <glyph glyph-name="uniE669" unicode="&#xe669;" 
d="M209 424l303 -303l303 303l-54 55l-249 -249l-249 249z" />
    <glyph glyph-name="uniE66C" unicode="&#xe66c;" 
d="M510 -62q-89 0 -170.5 34t-145.5 97q-77 78 -110 180.5t-15 211.5q24 144 130.5 246.5t251.5 121.5q116 15 223 -27t181 -131q18 -22 17.5 -49.5t-19.5 -47.5l-265 -295q-31 -34 -75.5 -37t-79.5 26l-175 146q-12 10 -13 25.5t8.5 27.5t25 13t27.5 -9l175 -146
q11 -10 26 -9t25 13l266 295q-62 74 -151.5 108.5t-185.5 22.5q-121 -16 -210 -101.5t-108 -204.5q-15 -92 12 -177.5t91.5 -150t150 -91.5t177.5 -12q120 20 206.5 111.5t100.5 213.5q6 56 -4 110q-4 21 -10 42q-5 15 2.5 28.5t22 18t28 -2.5t18.5 -22q7 -25 12 -50
q12 -66 5 -133q-17 -148 -120 -257t-249 -133q-38 -6 -76 -6z" />
    <glyph glyph-name="uniE686" unicode="&#xe686;" horiz-adv-x="1025" 
d="M507 81l67 66l-87 87l-66 -66v-32h54v-55h32zM759 492q-9 9 -19 0l-200 -200q-10 -10 -0.5 -19t18.5 0l200 200q10 10 1 19zM805 153v-109q0 -68 -48.5 -116t-116.5 -48h-475q-68 0 -116.5 48t-48.5 116v476q0 68 48.5 116t116.5 48h475q36 0 67 -14q8 -4 10 -13
q2 -10 -5 -17l-28 -28q-8 -8 -18 -4q-13 3 -26 3h-475q-38 0 -65 -27t-27 -64v-476q0 -38 27 -64.5t65 -26.5h475q38 0 64.5 26.5t26.5 64.5v72q0 8 6 13l36 36q9 9 20.5 4.5t11.5 -16.5zM750 574l164 -164l-384 -384h-164v164zM1003 499l-52 -53l-165 165l53 53
q16 16 39 16t39 -16l86 -87q16 -16 16 -39t-16 -39z" />
    <glyph glyph-name="uniE6E1" unicode="&#xe6e1;" 
d="M906 536l-105 105l53 53l105 -105zM433 63l-105 105l420 421l106 -106zM380 63l-105 -53l53 105zM170 536v-578h473v252l105 84v-442h-683v789h683l-105 -105h-473z" />
    <glyph glyph-name="uniE719" unicode="&#xe719;" 
d="M512 -52q-146 0 -249 103t-103 249t103 249t249 103t249 -103t103 -249t-103 -249t-249 -103zM512 588q-119 0 -203.5 -84.5t-84.5 -203.5t84.5 -203.5t203.5 -84.5t203.5 84.5t84.5 203.5t-84.5 203.5t-203.5 84.5z" />
    <glyph glyph-name="uniE73B" unicode="&#xe73b;" 
d="M489 -128q-129 6 -240 73q-14 8 -18.5 22.5t3.5 28t23 17t29 -4.5q82 -49 172 -60q179 -21 319 86q141 107 169 282q21 135 -38 258.5t-182 192.5q-115 65 -238 55q-262 -21 -376 -259q-45 -94 -38 -207q7 -112 66 -206q19 -28 -3 -49q-13 -12 -30 -10t-26 17
q-48 73 -66 152q-56 247 96 442q123 156 317 187q265 41 455 -152q110 -112 135 -275q5 -30 6 -53v-30v-15v-13q-3 -34 -9 -66q-34 -172 -167.5 -288t-309.5 -125h-49zM554 236v-104q0 -18 -10 -29t-26 -11t-26.5 11t-10.5 28q-1 118 0 213q0 5 -2 7t-8 2h-209
q-21 0 -32.5 15t-4.5 33q8 25 36 25h209q6 0 8.5 2t2.5 9q-1 84 -2 207q0 20 13 31t31 8q13 -2 21 -12.5t9 -24.5v-132q1 -64 0 -80q0 -8 9 -8h212q16 0 27 -10t11 -26q1 -16 -10 -26.5t-28 -10.5h-96h-94h-21q-9 1 -9 -9v-109v1zM613 305z" />
    <glyph glyph-name="uniE73D" unicode="&#xe73d;" 
d="M845 -148h-672q-47 0 -78 32t-31 77v672q0 44 34 79.5t81 35.5h448v-58h-448q-23 0 -40 -18.5t-17 -38.5v-666q0 -24 16.5 -40.5t40.5 -16.5h666q24 0 44 17t20 40v448h57v-448q0 -46 -38 -80.5t-83 -34.5zM909 614l-96 96q-15 14 -39 14t-38 -14l-435 -436
q-7 -12 -135 -275q-9 -19 5.5 -33.5t33.5 -4.5q269 128 275 134l429 442q14 14 14 38t-14 39zM237 12q-10 -5 -14 2t1 17l90 154l76 -77zM442 134l-103 102l314 314l96 -96zM851 556l-64 -58l-96 96l64 64q16 16 39 -6l57 -58q10 -14 10 -21t-10 -17z" />
    <glyph glyph-name="uniE796" unicode="&#xe796;" 
d="M910 584l-23 -18q42 -85 42 -181q0 -113 -56 -209.5t-152.5 -152.5t-210 -56t-210 56t-152 152.5t-55.5 210t55.5 209.5t152 152t210.5 56q93 0 176 -39t142 -107l22 16q-63 74 -151.5 116t-188.5 42q-91 0 -173.5 -35t-142.5 -95t-95 -142.5t-35 -173t35 -173.5
t95 -142.5t142.5 -95t173 -35.5t173 35.5t142.5 95t95 142.5t35 173q0 105 -46 199zM235 390l197 -197l19 20l-197 197zM767 567l-335 -334l19 -20l335 335z" />
    <glyph glyph-name="uniE7B3" unicode="&#xe7b3;" 
d="M510.5 766q-103.5 0 -191.5 -51t-139 -139t-51 -191.5t51 -191.5t139 -139t191.5 -51t191.5 51t139 139t51 191.5t-51 191.5t-139 139t-191.5 51zM657 280l-46 -46l-106 98l-105 -98l-50 46l104 107l-104 103l56 47l99 -106l106 110l46 -51l-102 -107z" />
    <glyph glyph-name="uniE971" unicode="&#xe971;" 
d="M489 198l-294 294q-9 10 -22.5 10t-22.5 -10q-9 -9 -9 -22.5t9 -22.5l317 -317q18 -19 44.5 -19t45.5 19l317 317q9 9 9 22.5t-9 22.5q-9 10 -22.5 10t-22.5 -10l-294 -294q-10 -9 -23 -9t-23 9z" />
  </font>
</defs>
</svg>
